# xmcd
#
# Track frame offsets: 
#        150
#        16842
#        34255
#
# Disc length: 730 seconds
#
# Revision: 1
# Processed by: cddbd v1.5.2PL0 Copyright (c) Steve Scherf et al.
# Submitted via: ExactAudioCopy v1.0b3
#
DISCID=1902d803
DTITLE=Marie M. - Summertime
DYEAR=2002
DGENRE=Jazz Vocal
TTITLE0=Summertime
TTITLE1=You'd be so Nice to come Home to
TTITLE2=My funny Valentine
EXTD=YEAR: 2002
EXTT0=
EXTT1=
EXTT2=
PLAYORDER=
